<svg width="55" height="11" viewBox="0 0 55 11" fill="none" xmlns="http://www.w3.org/2000/svg">
<path d="M4.63852 9.72941L2.22325e-05 5.09091L4.63852 0.45242L5.5334 1.33736L2.42616 4.44461H10.2316V5.73722H2.42616L5.5334 8.83949L4.63852 9.72941ZM17.6889 5.24521e-06L20.5227 8.29262H20.6371L23.4709 5.24521e-06H25.1314L21.4674 10.1818H19.6925L16.0284 5.24521e-06H17.6889ZM28.9334 10.3359C28.2175 10.3359 27.5928 10.1719 27.0591 9.84376C26.5255 9.51563 26.1112 9.05659 25.8163 8.46662C25.5213 7.87666 25.3738 7.18727 25.3738 6.39844C25.3738 5.6063 25.5213 4.91359 25.8163 4.32032C26.1112 3.72704 26.5255 3.26634 27.0591 2.93822C27.5928 2.61009 28.2175 2.44603 28.9334 2.44603C29.6493 2.44603 30.2741 2.61009 30.8077 2.93822C31.3413 3.26634 31.7556 3.72704 32.0506 4.32032C32.3456 4.91359 32.4931 5.6063 32.4931 6.39844C32.4931 7.18727 32.3456 7.87666 32.0506 8.46662C31.7556 9.05659 31.3413 9.51563 30.8077 9.84376C30.2741 10.1719 29.6493 10.3359 28.9334 10.3359ZM28.9384 9.08807C29.4024 9.08807 29.7869 8.96544 30.0918 8.72018C30.3967 8.47491 30.6221 8.14844 30.768 7.74077C30.9171 7.3331 30.9917 6.884 30.9917 6.39347C30.9917 5.90626 30.9171 5.45881 30.768 5.05114C30.6221 4.64016 30.3967 4.31037 30.0918 4.0618C29.7869 3.81322 29.4024 3.68893 28.9384 3.68893C28.4711 3.68893 28.0833 3.81322 27.7751 4.0618C27.4701 4.31037 27.2431 4.64016 27.0939 5.05114C26.9481 5.45881 26.8752 5.90626 26.8752 6.39347C26.8752 6.884 26.9481 7.3331 27.0939 7.74077C27.2431 8.14844 27.4701 8.47491 27.7751 8.72018C28.0833 8.96544 28.4711 9.08807 28.9384 9.08807ZM35.6389 5.24521e-06V10.1818H34.1524V5.24521e-06H35.6389ZM41.2033 2.54546V3.73864H37.0322V2.54546H41.2033ZM38.1508 0.715914H39.6373V7.93964C39.6373 8.22799 39.6804 8.44508 39.7665 8.59091C39.8527 8.73343 39.9637 8.83121 40.0996 8.88424C40.2388 8.93395 40.3896 8.95881 40.552 8.95881C40.6714 8.95881 40.7758 8.95053 40.8653 8.93395C40.9547 8.91738 41.0243 8.90412 41.0741 8.89418L41.3425 10.1222C41.2564 10.1553 41.1337 10.1885 40.9746 10.2216C40.8155 10.2581 40.6167 10.2779 40.378 10.2813C39.9869 10.2879 39.6224 10.2183 39.2843 10.0724C38.9462 9.92662 38.6728 9.70124 38.464 9.39631C38.2552 9.09139 38.1508 8.70858 38.1508 8.24787V0.715914ZM45.07 10.3509C44.5861 10.3509 44.1486 10.2614 43.7575 10.0824C43.3664 9.9001 43.0565 9.63661 42.8278 9.29191C42.6024 8.94721 42.4897 8.52463 42.4897 8.02415C42.4897 7.59328 42.5726 7.23864 42.7383 6.96023C42.904 6.68182 43.1277 6.46142 43.4095 6.29901C43.6912 6.13661 44.0061 6.01397 44.3541 5.93111C44.7021 5.84825 45.0567 5.78528 45.418 5.74219C45.8754 5.68916 46.2466 5.64608 46.5316 5.61293C46.8167 5.57647 47.0238 5.51847 47.1531 5.43893C47.2823 5.35938 47.347 5.23012 47.347 5.05114V5.01634C47.347 4.58215 47.2243 4.24574 46.9791 4.00711C46.7371 3.76847 46.3759 3.64915 45.8953 3.64915C45.3948 3.64915 45.0004 3.76019 44.712 3.98225C44.427 4.201 44.2298 4.44461 44.1204 4.71307L42.7234 4.39489C42.8891 3.93088 43.1311 3.55635 43.4492 3.27131C43.7707 2.98296 44.1403 2.77415 44.5579 2.64489C44.9755 2.51232 45.4147 2.44603 45.8754 2.44603C46.1803 2.44603 46.5035 2.48249 46.8448 2.5554C47.1895 2.62501 47.511 2.75427 47.8093 2.94319C48.1109 3.13211 48.3579 3.40223 48.5501 3.75356C48.7423 4.10157 48.8384 4.55398 48.8384 5.1108V10.1818H47.3867V9.13779H47.3271C47.231 9.33002 47.0868 9.51894 46.8946 9.70455C46.7023 9.89016 46.4554 10.0443 46.1538 10.1669C45.8522 10.2895 45.4909 10.3509 45.07 10.3509ZM45.3931 9.15768C45.8041 9.15768 46.1554 9.07647 46.4471 8.91407C46.7421 8.75166 46.9658 8.53954 47.1183 8.2777C47.2741 8.01255 47.3519 7.72917 47.3519 7.42756V6.44319C47.2989 6.49622 47.1962 6.54593 47.0437 6.59233C46.8946 6.63542 46.7239 6.67354 46.5316 6.70668C46.3394 6.73651 46.1521 6.76468 45.9698 6.7912C45.7875 6.8144 45.6351 6.83429 45.5125 6.85086C45.2241 6.88732 44.9606 6.94863 44.722 7.03481C44.4866 7.12098 44.2977 7.24527 44.1552 7.40768C44.016 7.56677 43.9464 7.77889 43.9464 8.04404C43.9464 8.41194 44.0823 8.69035 44.3541 8.87927C44.6259 9.06487 44.9722 9.15768 45.3931 9.15768ZM50.8184 10.1818V2.54546H52.2552V3.75853H52.3347C52.4739 3.34754 52.7192 3.02439 53.0705 2.78907C53.4252 2.55043 53.8262 2.43111 54.2736 2.43111C54.3664 2.43111 54.4758 2.43443 54.6018 2.44106C54.731 2.44769 54.8321 2.45597 54.905 2.46591V3.88779C54.8454 3.87122 54.7393 3.85299 54.5868 3.8331C54.4344 3.8099 54.2819 3.7983 54.1295 3.7983C53.7781 3.7983 53.4649 3.87287 53.1898 4.02202C52.9181 4.16786 52.7026 4.37169 52.5435 4.63353C52.3844 4.89205 52.3049 5.18703 52.3049 5.51847V10.1818H50.8184Z" fill="#CA3884"/>
</svg>
